<svg width="60" height="60" viewBox="0 0 60 60" fill="none" xmlns="http://www.w3.org/2000/svg">
<path d="M53.5714 0H6.42857C2.87946 0 0 2.51953 0 5.625V46.875C0 49.9805 2.87946 52.5 6.42857 52.5H53.5714C57.1205 52.5 60 49.9805 60 46.875V5.625C60 2.51953 57.1205 0 53.5714 0ZM47.0223 18.6094C47.0491 18.9375 47.0491 19.2773 47.0491 19.6055C47.0491 29.7656 38.2098 41.4727 22.058 41.4727C17.0759 41.4727 12.4554 40.207 8.57143 38.0273C9.28125 38.0977 9.96429 38.1211 10.6875 38.1211C14.7991 38.1211 18.5759 36.9023 21.5893 34.8398C17.7321 34.7695 14.4911 32.5547 13.3795 29.5078C14.7321 29.6836 15.9509 29.6836 17.3438 29.3672C13.3259 28.6523 10.3125 25.5586 10.3125 21.8203V21.7266C11.4777 22.3008 12.8437 22.6523 14.2768 22.6992C13.072 21.998 12.0844 21.0467 11.402 19.9303C10.7196 18.8138 10.3637 17.5669 10.3661 16.3008C10.3661 14.8711 10.7946 13.5586 11.558 12.4219C15.8839 17.0859 22.3795 20.1328 29.6652 20.4609C28.4196 15.2461 32.8795 11.0156 38.2366 11.0156C40.7679 11.0156 43.0446 11.9414 44.6518 13.4414C46.6339 13.1133 48.5357 12.4687 50.2232 11.5898C49.567 13.3711 48.1875 14.8711 46.3661 15.8203C48.1339 15.6562 49.8482 15.2227 51.4286 14.625C50.2366 16.1602 48.7366 17.5195 47.0223 18.6094Z" fill="black"/>
</svg>
