<svg width="60" height="59" viewBox="0 0 60 59" fill="none" xmlns="http://www.w3.org/2000/svg">
<path d="M30.0067 14.242C21.4936 14.242 14.6269 20.9342 14.6269 29.2308C14.6269 37.5275 21.4936 44.2197 30.0067 44.2197C38.5198 44.2197 45.3865 37.5275 45.3865 29.2308C45.3865 20.9342 38.5198 14.242 30.0067 14.242ZM30.0067 38.9755C24.5053 38.9755 20.0078 34.6054 20.0078 29.2308C20.0078 23.8563 24.4919 19.4861 30.0067 19.4861C35.5215 19.4861 40.0056 23.8563 40.0056 29.2308C40.0056 34.6054 35.5081 38.9755 30.0067 38.9755ZM49.6029 13.6289C49.6029 15.5726 47.9967 17.125 46.0156 17.125C44.0212 17.125 42.4283 15.5596 42.4283 13.6289C42.4283 11.6982 44.0346 10.1328 46.0156 10.1328C47.9967 10.1328 49.6029 11.6982 49.6029 13.6289ZM59.7892 17.1772C59.5616 12.494 58.464 8.34561 54.9437 4.92779C51.4367 1.50997 47.1801 0.440273 42.3748 0.205461C37.4222 -0.0684869 22.5778 -0.0684869 17.6252 0.205461C12.8332 0.427228 8.57669 1.49693 5.05633 4.91475C1.53597 8.33257 0.451757 12.4809 0.21082 17.1641C-0.0702733 21.9908 -0.0702733 36.4578 0.21082 41.2845C0.438371 45.9677 1.53597 50.1161 5.05633 53.5339C8.57669 56.9517 12.8199 58.0214 17.6252 58.2562C22.5778 58.5302 37.4222 58.5302 42.3748 58.2562C47.1801 58.0345 51.4367 56.9648 54.9437 53.5339C58.4506 50.1161 59.5482 45.9677 59.7892 41.2845C60.0703 36.4578 60.0703 22.0039 59.7892 17.1772ZM53.391 46.4634C52.3469 49.0203 50.3257 50.9901 47.6888 52.0207C43.7401 53.5469 34.3703 53.1947 30.0067 53.1947C25.6431 53.1947 16.2599 53.5339 12.3246 52.0207C9.70106 51.0031 7.67987 49.0333 6.62242 46.4634C5.05633 42.6151 5.41774 33.4836 5.41774 29.2308C5.41774 24.9781 5.06972 15.8335 6.62242 11.9982C7.66648 9.4414 9.68767 7.47159 12.3246 6.44103C16.2733 4.91475 25.6431 5.26697 30.0067 5.26697C34.3703 5.26697 43.7535 4.92779 47.6888 6.44103C50.3123 7.45855 52.3335 9.42836 53.391 11.9982C54.9571 15.8466 54.5956 24.9781 54.5956 29.2308C54.5956 33.4836 54.9571 42.6282 53.391 46.4634Z" fill="black"/>
</svg>
